<svg version="1.1" id="Layer_1" xmlns="http://www.w3.org/2000/svg" xmlns:xlink="http://www.w3.org/1999/xlink" x="0px" y="0px"
	 width="100%" viewBox="0 0 756 752" enable-background="new 0 0 756 752" xml:space="preserve">
<path fill="#018B01" opacity="1.000000" stroke="none" 
	d="
M419.000000,753.000000 
	C418.250000,753.000000 417.500000,753.000000 416.452209,752.646606 
	C403.746643,738.580261 391.338867,724.867371 379.003632,711.234619 
	C369.167938,721.502747 359.660583,731.244629 350.387604,741.204651 
	C346.973755,744.871460 344.113007,749.053162 341.000000,753.000000 
	C340.250000,753.000000 339.500000,753.000000 338.448303,752.638123 
	C329.065979,737.112183 320.038605,721.915222 310.759766,706.873413 
	C310.254791,706.054749 307.159027,705.802490 306.095917,706.516846 
	C293.077026,715.264526 280.222565,724.256592 267.296356,733.142883 
	C265.614014,734.299377 263.767914,735.217712 261.688232,736.426147 
	C255.206070,718.109192 248.962738,700.467102 242.612854,682.523926 
	C224.412735,690.085266 207.149017,697.257507 189.420593,704.622864 
	C188.799118,698.558899 188.394638,693.628235 187.771347,688.725342 
	C186.233780,676.630432 184.360382,664.572083 183.131088,652.447449 
	C182.723343,648.425842 180.964783,647.494019 177.712738,648.081726 
	C170.094894,649.458252 162.518463,651.062256 154.915634,652.523987 
	C145.466858,654.340637 136.008408,656.106934 125.899551,658.018738 
	C126.341225,650.542542 126.621040,643.791077 127.165123,637.060974 
	C128.016235,626.532959 128.992203,616.014038 130.026535,605.502197 
	C130.447815,601.220703 128.346375,599.950745 124.475624,599.973572 
	C111.815628,600.048279 99.153351,600.112976 86.495331,599.937683 
	C82.117043,599.876953 77.748642,599.102600 72.951721,598.610779 
	C78.407570,580.358337 83.724846,562.569519 89.070389,544.686157 
	C87.420647,544.054077 86.231682,543.436768 84.967445,543.138794 
	C69.084442,539.395569 53.208485,535.618408 37.284702,532.055603 
	C34.005383,531.321960 33.395344,529.994263 34.925632,527.256531 
	C39.039238,519.897034 43.198181,512.562500 47.260998,505.175110 
	C51.763744,496.987793 56.179890,488.752869 60.703011,480.410889 
	C43.279415,472.153290 26.277103,464.095337 8.608069,455.721405 
	C21.277384,441.010773 33.523514,426.791504 46.244171,412.021240 
	C44.717808,410.786407 43.454292,409.697754 42.123608,408.698517 
	C33.285614,402.062286 24.490004,395.367432 15.562494,388.853516 
	C10.830840,385.401093 5.861855,382.273956 1.000002,379.000000 
	C1.000000,377.933563 1.000000,376.867096 1.361592,375.498016 
	C2.210906,375.085724 2.807789,375.120300 3.170619,374.845642 
	C17.479910,364.015076 31.767872,353.156311 46.219692,342.178925 
	C33.572445,327.520599 21.299150,313.295685 8.589565,298.565125 
	C26.243071,290.169128 43.402950,282.007904 60.742836,273.761078 
	C52.269363,258.387970 43.984657,243.326721 35.662151,228.286392 
	C34.172009,225.593414 32.764854,223.105942 37.354614,222.067596 
	C47.646313,219.739319 57.929283,217.371704 68.204971,214.973663 
	C75.064545,213.372849 81.905464,211.692123 89.156990,209.950546 
	C83.626587,191.461304 78.303192,173.664139 72.750168,155.099304 
	C92.144646,154.583008 110.935318,154.082779 130.356232,153.565781 
	C128.810699,134.198990 127.306618,115.351776 125.775604,96.167038 
	C144.977356,99.795792 163.213150,103.241997 182.307953,106.850540 
	C184.725891,87.836433 187.106995,69.111816 189.587463,49.605919 
	C207.373184,57.016258 224.848099,64.297096 242.738510,71.751060 
	C249.040619,53.733849 255.281158,35.892639 261.781860,17.307665 
	C277.878174,28.464748 293.398865,39.222855 309.172943,50.156578 
	C316.456177,38.150238 323.617523,26.491461 330.614807,14.735038 
	C333.270905,10.272380 335.549408,5.584974 338.000000,1.000001 
	C338.750000,1.000000 339.500000,1.000000 340.546600,1.352194 
	C353.272369,15.407621 365.701538,29.110855 378.543549,43.269257 
	C382.697601,38.655346 386.459167,34.293083 390.418304,30.118219 
	C398.746887,21.335876 407.196808,12.668590 415.537598,3.897697 
	C416.251434,3.147056 416.522980,1.975839 417.000000,1.000000 
	C417.444427,1.000000 417.888885,1.000000 418.591888,1.359918 
	C428.546967,17.793516 438.243469,33.867199 448.086548,50.183811 
	C464.139038,39.065319 479.549500,28.391537 495.483276,17.355267 
	C502.009766,35.950161 508.235596,53.688377 514.577759,71.758156 
	C532.135681,64.437462 549.600220,57.155712 567.619751,49.642563 
	C570.175049,69.108192 572.645508,87.927315 575.121277,106.786697 
	C594.434753,103.164185 612.942444,99.692802 631.604004,96.192558 
	C630.009827,115.656174 628.466431,134.498962 626.825806,154.529526 
	C646.248596,154.529526 664.922424,154.529526 684.589600,154.529526 
	C678.878723,173.648026 673.560486,191.452087 668.026184,209.979416 
	C686.742188,214.440338 705.328735,218.870377 724.165100,223.359985 
	C714.787720,240.501648 705.842651,256.853088 696.587402,273.771515 
	C714.038940,282.091736 731.069519,290.211273 748.625793,298.581390 
	C735.762329,313.510406 723.493408,327.749481 711.029419,342.214935 
	C721.390564,350.047577 731.318604,357.656525 741.365723,365.104767 
	C746.466370,368.885986 751.781738,372.377533 757.000000,376.000000 
	C757.000000,376.444427 757.000000,376.888885 756.646240,377.589600 
	C741.198975,389.231964 726.105530,400.618042 710.990784,412.020142 
	C723.707520,426.736908 735.896423,440.842773 748.703308,455.663849 
	C731.055542,464.063843 714.012695,472.175873 696.617493,480.455658 
	C705.877747,497.418457 714.822815,513.803894 724.154358,530.897278 
	C705.102417,535.427551 686.642151,539.817139 668.095398,544.227295 
	C673.599426,562.669678 678.906372,580.451538 684.367920,598.751526 
	C678.773315,599.213867 674.022583,599.879761 669.263611,599.945740 
	C657.437134,600.109802 645.606628,599.950623 633.778320,600.020996 
	C627.672607,600.057373 626.464233,601.674438 627.017822,607.362915 
	C628.645203,624.085266 630.100342,640.824402 631.673035,658.107544 
	C612.429626,654.479187 593.934387,650.991882 575.018066,647.425171 
	C572.575134,666.521118 570.196838,685.111694 567.712158,704.533875 
	C549.757324,697.113403 532.442871,689.957642 514.647461,682.603088 
	C513.665466,685.131348 512.783264,687.213867 512.040649,689.345093 
	C506.985565,703.852600 501.982697,718.378479 496.895142,732.874573 
	C496.269379,734.657471 495.663361,737.171814 492.825104,735.220886 
	C488.197937,732.040283 483.645905,728.750610 479.038055,725.541565 
	C468.816986,718.423462 458.580963,711.326904 448.195526,704.113525 
	C443.549835,711.622986 439.114288,718.578308 434.897095,725.663513 
	C429.506012,734.720886 424.290924,743.883057 419.000000,753.000000 
M502.780975,673.191162 
	C656.579224,608.399536 736.580078,437.064026 683.190674,275.718597 
	C633.662781,126.042847 482.416962,34.697903 326.853271,60.298172 
	C255.010437,72.120956 193.544052,104.522102 144.222595,158.126328 
	C74.570869,233.826172 47.153996,323.562164 61.423058,425.156525 
	C71.782204,498.912628 105.602531,561.378784 160.093246,612.135559 
	C213.377533,661.768677 276.725220,689.944885 349.210144,696.759338 
	C401.983063,701.720642 453.047974,693.876587 502.780975,673.191162 
z"/>
<path fill="#000000" opacity="1.000000" stroke="none" 
	d="
M757.000000,375.531342 
	C751.781738,372.377533 746.466370,368.885986 741.365723,365.104767 
	C731.318604,357.656525 721.390564,350.047577 711.029419,342.214935 
	C723.493408,327.749481 735.762329,313.510406 748.625793,298.581390 
	C731.069519,290.211273 714.038940,282.091736 696.587402,273.771515 
	C705.842651,256.853088 714.787720,240.501648 724.165100,223.359985 
	C705.328735,218.870377 686.742188,214.440338 668.026184,209.979416 
	C673.560486,191.452087 678.878723,173.648026 684.589600,154.529526 
	C664.922424,154.529526 646.248596,154.529526 626.825806,154.529526 
	C628.466431,134.498962 630.009827,115.656174 631.604004,96.192558 
	C612.942444,99.692802 594.434753,103.164185 575.121277,106.786697 
	C572.645508,87.927315 570.175049,69.108192 567.619751,49.642563 
	C549.600220,57.155712 532.135681,64.437462 514.577759,71.758156 
	C508.235596,53.688377 502.009766,35.950161 495.483276,17.355267 
	C479.549500,28.391537 464.139038,39.065319 448.086548,50.183811 
	C438.243469,33.867199 428.546967,17.793516 418.925232,1.359918 
	C531.597534,1.000000 644.195007,1.000000 757.000000,1.000000 
	C757.000000,125.687485 757.000000,250.375076 757.000000,375.531342 
z"/>
<path fill="#000000" opacity="1.000000" stroke="none" 
	d="
M419.468689,753.000000 
	C424.290924,743.883057 429.506012,734.720886 434.897095,725.663513 
	C439.114288,718.578308 443.549835,711.622986 448.195526,704.113525 
	C458.580963,711.326904 468.816986,718.423462 479.038055,725.541565 
	C483.645905,728.750610 488.197937,732.040283 492.825104,735.220886 
	C495.663361,737.171814 496.269379,734.657471 496.895142,732.874573 
	C501.982697,718.378479 506.985565,703.852600 512.040649,689.345093 
	C512.783264,687.213867 513.665466,685.131348 514.647461,682.603088 
	C532.442871,689.957642 549.757324,697.113403 567.712158,704.533875 
	C570.196838,685.111694 572.575134,666.521118 575.018066,647.425171 
	C593.934387,650.991882 612.429626,654.479187 631.673035,658.107544 
	C630.100342,640.824402 628.645203,624.085266 627.017822,607.362915 
	C626.464233,601.674438 627.672607,600.057373 633.778320,600.020996 
	C645.606628,599.950623 657.437134,600.109802 669.263611,599.945740 
	C674.022583,599.879761 678.773315,599.213867 684.367920,598.751526 
	C678.906372,580.451538 673.599426,562.669678 668.095398,544.227295 
	C686.642151,539.817139 705.102417,535.427551 724.154358,530.897278 
	C714.822815,513.803894 705.877747,497.418457 696.617493,480.455658 
	C714.012695,472.175873 731.055542,464.063843 748.703308,455.663849 
	C735.896423,440.842773 723.707520,426.736908 710.990784,412.020142 
	C726.105530,400.618042 741.198975,389.231964 756.646240,377.922943 
	C757.000000,502.923279 757.000000,627.846558 757.000000,753.000000 
	C644.645874,753.000000 532.291626,753.000000 419.468689,753.000000 
z"/>
<path fill="#000000" opacity="1.000000" stroke="none" 
	d="
M337.531342,1.000001 
	C335.549408,5.584974 333.270905,10.272380 330.614807,14.735038 
	C323.617523,26.491461 316.456177,38.150238 309.172943,50.156578 
	C293.398865,39.222855 277.878174,28.464748 261.781860,17.307665 
	C255.281158,35.892639 249.040619,53.733849 242.738510,71.751060 
	C224.848099,64.297096 207.373184,57.016258 189.587463,49.605919 
	C187.106995,69.111816 184.725891,87.836433 182.307953,106.850540 
	C163.213150,103.241997 144.977356,99.795792 125.775604,96.167038 
	C127.306618,115.351776 128.810699,134.198990 130.356232,153.565781 
	C110.935318,154.082779 92.144646,154.583008 72.750168,155.099304 
	C78.303192,173.664139 83.626587,191.461304 89.156990,209.950546 
	C81.905464,211.692123 75.064545,213.372849 68.204971,214.973663 
	C57.929283,217.371704 47.646313,219.739319 37.354614,222.067596 
	C32.764854,223.105942 34.172009,225.593414 35.662151,228.286392 
	C43.984657,243.326721 52.269363,258.387970 60.742836,273.761078 
	C43.402950,282.007904 26.243071,290.169128 8.589565,298.565125 
	C21.299150,313.295685 33.572445,327.520599 46.219692,342.178925 
	C31.767872,353.156311 17.479910,364.015076 3.170619,374.845642 
	C2.807789,375.120300 2.210906,375.085724 1.361592,375.097687 
	C1.000000,250.410049 1.000000,125.820114 1.000000,1.000000 
	C113.020790,1.000000 225.041733,1.000000 337.531342,1.000001 
z"/>
<path fill="#000000" opacity="1.000000" stroke="none" 
	d="
M1.000002,379.468658 
	C5.861855,382.273956 10.830840,385.401093 15.562494,388.853516 
	C24.490004,395.367432 33.285614,402.062286 42.123608,408.698517 
	C43.454292,409.697754 44.717808,410.786407 46.244171,412.021240 
	C33.523514,426.791504 21.277384,441.010773 8.608069,455.721405 
	C26.277103,464.095337 43.279415,472.153290 60.703011,480.410889 
	C56.179890,488.752869 51.763744,496.987793 47.260998,505.175110 
	C43.198181,512.562500 39.039238,519.897034 34.925632,527.256531 
	C33.395344,529.994263 34.005383,531.321960 37.284702,532.055603 
	C53.208485,535.618408 69.084442,539.395569 84.967445,543.138794 
	C86.231682,543.436768 87.420647,544.054077 89.070389,544.686157 
	C83.724846,562.569519 78.407570,580.358337 72.951721,598.610779 
	C77.748642,599.102600 82.117043,599.876953 86.495331,599.937683 
	C99.153351,600.112976 111.815628,600.048279 124.475624,599.973572 
	C128.346375,599.950745 130.447815,601.220703 130.026535,605.502197 
	C128.992203,616.014038 128.016235,626.532959 127.165123,637.060974 
	C126.621040,643.791077 126.341225,650.542542 125.899551,658.018738 
	C136.008408,656.106934 145.466858,654.340637 154.915634,652.523987 
	C162.518463,651.062256 170.094894,649.458252 177.712738,648.081726 
	C180.964783,647.494019 182.723343,648.425842 183.131088,652.447449 
	C184.360382,664.572083 186.233780,676.630432 187.771347,688.725342 
	C188.394638,693.628235 188.799118,698.558899 189.420593,704.622864 
	C207.149017,697.257507 224.412735,690.085266 242.612854,682.523926 
	C248.962738,700.467102 255.206070,718.109192 261.688232,736.426147 
	C263.767914,735.217712 265.614014,734.299377 267.296356,733.142883 
	C280.222565,724.256592 293.077026,715.264526 306.095917,706.516846 
	C307.159027,705.802490 310.254791,706.054749 310.759766,706.873413 
	C320.038605,721.915222 329.065979,737.112183 338.073303,752.638123 
	C225.735794,753.000000 113.471596,753.000000 1.000000,753.000000 
	C1.000000,628.645874 1.000000,504.291595 1.000002,379.468658 
z"/>
<path fill="#000000" opacity="1.000000" stroke="none" 
	d="
M416.531342,1.000000 
	C416.522980,1.975839 416.251434,3.147056 415.537598,3.897697 
	C407.196808,12.668590 398.746887,21.335876 390.418304,30.118219 
	C386.459167,34.293083 382.697601,38.655346 378.543549,43.269257 
	C365.701538,29.110855 353.272369,15.407621 340.921600,1.352194 
	C366.020905,1.000000 391.041779,1.000000 416.531342,1.000000 
z"/>
<path fill="#000000" opacity="1.000000" stroke="none" 
	d="
M341.468658,753.000000 
	C344.113007,749.053162 346.973755,744.871460 350.387604,741.204651 
	C359.660583,731.244629 369.167938,721.502747 379.003632,711.234619 
	C391.338867,724.867371 403.746643,738.580261 416.077209,752.646606 
	C391.312439,753.000000 366.624878,753.000000 341.468658,753.000000 
z"/>
<path fill="#EFF8EF" opacity="1.000000" stroke="none" 
	d="
M502.439148,673.365479 
	C453.047974,693.876587 401.983063,701.720642 349.210144,696.759338 
	C276.725220,689.944885 213.377533,661.768677 160.093246,612.135559 
	C105.602531,561.378784 71.782204,498.912628 61.423058,425.156525 
	C47.153996,323.562164 74.570869,233.826172 144.222595,158.126328 
	C193.544052,104.522102 255.010437,72.120956 326.853271,60.298172 
	C482.416962,34.697903 633.662781,126.042847 683.190674,275.718597 
	C736.580078,437.064026 656.579224,608.399536 502.439148,673.365479 
M688.958191,313.772461 
	C674.780396,246.772507 643.092896,189.428833 592.170349,143.641006 
	C517.243286,76.269226 429.074432,49.872223 329.538025,64.470871 
	C259.640991,74.722435 199.641388,106.161530 151.002258,157.460587 
	C80.285110,232.045044 51.680077,321.146820 65.496544,422.811310 
	C75.581192,497.016205 109.107956,560.231750 164.846237,610.255493 
	C245.735291,682.851440 340.676422,708.952759 446.831238,685.871765 
	C546.228760,664.260193 618.625549,605.473022 663.734192,514.434814 
	C695.124756,451.082428 702.424683,383.988037 688.958191,313.772461 
z"/>
<path fill="#028C02" opacity="1.000000" stroke="none" 
	d="
M689.007019,314.194611 
	C702.424683,383.988037 695.124756,451.082428 663.734192,514.434814 
	C618.625549,605.473022 546.228760,664.260193 446.831238,685.871765 
	C340.676422,708.952759 245.735291,682.851440 164.846237,610.255493 
	C109.107956,560.231750 75.581192,497.016205 65.496544,422.811310 
	C51.680077,321.146820 80.285110,232.045044 151.002258,157.460587 
	C199.641388,106.161530 259.640991,74.722435 329.538025,64.470871 
	C429.074432,49.872223 517.243286,76.269226 592.170349,143.641006 
	C643.092896,189.428833 674.780396,246.772507 689.007019,314.194611 
M641.902100,250.636414 
	C627.727356,221.511871 609.676392,195.010864 586.600708,172.282806 
	C519.239136,105.936073 438.166077,77.113228 344.262726,87.393677 
	C274.930756,94.984070 215.575668,124.835243 167.682846,175.642044 
	C104.122520,243.069641 78.175522,323.656677 89.387802,415.377869 
	C97.650452,482.969910 127.056351,541.085632 176.781372,587.677551 
	C250.476761,656.729553 337.974060,682.079041 437.026978,662.905212 
	C570.709412,637.028137 668.676086,518.376465 670.548706,382.284515 
	C671.179138,336.468536 661.933228,292.751648 641.902100,250.636414 
z"/>
<path fill="#EEF7EE" opacity="1.000000" stroke="none" 
	d="
M642.031738,250.987045 
	C661.933228,292.751648 671.179138,336.468536 670.548706,382.284515 
	C668.676086,518.376465 570.709412,637.028137 437.026978,662.905212 
	C337.974060,682.079041 250.476761,656.729553 176.781372,587.677551 
	C127.056351,541.085632 97.650452,482.969910 89.387802,415.377869 
	C78.175522,323.656677 104.122520,243.069641 167.682846,175.642044 
	C215.575668,124.835243 274.930756,94.984070 344.262726,87.393677 
	C438.166077,77.113228 519.239136,105.936073 586.600708,172.282806 
	C609.676392,195.010864 627.727356,221.511871 642.031738,250.987045 
M346.237091,90.655823 
	C343.270538,91.058411 340.299683,91.431946 337.338043,91.867867 
	C271.466003,101.563583 214.954346,130.067505 169.722549,178.799393 
	C101.330261,252.484009 77.033188,339.635376 97.042290,438.013977 
	C123.701241,569.087830 242.370590,665.050171 376.180695,665.441956 
	C422.888641,665.578735 467.110260,655.374756 508.927338,634.388123 
	C621.543701,577.869507 685.240051,451.153992 662.699768,327.378204 
	C649.586060,255.366562 614.533630,196.011734 556.999451,150.752563 
	C495.424347,102.314629 425.040405,82.908852 346.237091,90.655823 
z"/>
<path fill="#018C01" opacity="1.000000" stroke="none" 
	d="
M346.687378,90.598373 
	C425.040405,82.908852 495.424347,102.314629 556.999451,150.752563 
	C614.533630,196.011734 649.586060,255.366562 662.699768,327.378204 
	C685.240051,451.153992 621.543701,577.869507 508.927338,634.388123 
	C467.110260,655.374756 422.888641,665.578735 376.180695,665.441956 
	C242.370590,665.050171 123.701241,569.087830 97.042290,438.013977 
	C77.033188,339.635376 101.330261,252.484009 169.722549,178.799393 
	C214.954346,130.067505 271.466003,101.563583 337.338043,91.867867 
	C340.299683,91.431946 343.270538,91.058411 346.687378,90.598373 
M154.837921,275.316956 
	C148.671448,274.123047 151.217072,280.199036 148.435638,282.260651 
	C161.266373,287.570496 173.591812,292.671204 186.181702,297.881348 
	C187.566437,294.442902 188.759186,291.481171 189.986374,288.433929 
	C184.085083,285.951965 178.734024,283.717438 173.395767,281.452759 
	C163.531601,277.268066 162.356827,274.918304 165.106232,264.509003 
	C162.471878,263.387451 159.796341,262.248352 157.022217,261.067291 
	C153.752029,265.733521 154.859680,270.067841 156.265640,274.886230 
	C156.049332,275.058441 155.833023,275.230682 154.837921,275.316956 
M332.670715,474.829102 
	C347.709473,489.877838 362.748230,504.926544 377.608704,519.796875 
	C425.399780,472.010284 472.841248,424.573364 519.944397,377.474670 
	C472.667175,330.195923 425.139923,282.667114 378.034241,235.559875 
	C330.867798,282.732086 283.340546,330.265198 235.711166,377.900360 
	C267.623413,409.802429 299.897064,442.065765 332.670715,474.829102 
M588.701843,242.229340 
	C577.033020,248.069229 565.364197,253.909134 553.416504,259.888611 
	C554.791504,262.558197 555.983643,264.872925 557.215088,267.263855 
	C558.924805,266.748840 560.274719,266.342224 561.781677,265.888275 
	C557.187378,283.295959 571.328857,292.274750 584.434143,288.785522 
	C587.741211,287.905060 590.981445,286.269928 593.857361,284.380402 
	C599.603699,280.604950 603.449524,275.282990 602.685913,268.124298 
	C601.907288,260.824249 597.816833,255.663666 589.808838,253.340118 
	C597.154053,249.610809 603.929749,246.170639 610.927429,242.617783 
	C609.353088,239.454926 607.918213,236.572266 606.372375,233.466751 
	C600.362976,236.465057 594.876526,239.202499 588.701843,242.229340 
M418.204254,126.161865 
	C417.131439,120.811333 416.058624,115.460800 414.962891,109.995850 
	C412.229736,109.641190 409.721008,109.553246 407.340851,108.954247 
	C403.183960,107.908104 401.218048,109.497192 399.581970,113.383423 
	C394.560974,125.309944 389.091583,137.047745 383.792267,148.857025 
	C381.864838,153.152222 379.925812,157.442184 377.843536,162.064240 
	C379.762115,162.374680 381.088196,162.471191 382.347076,162.814240 
	C386.832764,164.036652 389.438324,162.514771 390.758423,157.944824 
	C391.712524,154.641846 393.420471,151.556625 394.893829,148.138596 
	C400.819244,148.829178 406.538422,149.495712 412.476105,150.187729 
	C413.353027,154.628662 413.999939,158.894531 415.119476,163.032532 
	C415.506866,164.464310 416.856415,166.313324 418.138214,166.683105 
	C420.728394,167.430328 423.572937,167.295700 426.726868,167.559387 
	C423.877441,153.666595 421.140869,140.324127 418.204254,126.161865 
M127.711967,324.779663 
	C142.400772,333.162659 157.089569,341.545624 172.192413,350.164917 
	C172.633698,348.406403 172.782440,347.098267 173.283417,345.942841 
	C175.303146,341.284637 173.533966,338.658569 169.093719,336.823853 
	C165.925568,335.514771 163.040405,333.520844 160.032501,331.834503 
	C160.734589,328.535217 161.356247,325.618591 161.975784,322.701538 
	C163.680038,314.676971 163.680939,314.688293 171.720261,313.801910 
	C174.516571,313.493652 177.305008,313.113739 180.361465,312.733673 
	C181.049454,309.334167 181.730164,305.970673 182.521347,302.061310 
	C162.728317,304.132019 143.419144,306.152130 124.212311,308.161499 
	C120.279800,320.568329 120.279800,320.568329 127.711967,324.779663 
M347.638489,599.163757 
	C349.851349,595.386475 352.064178,591.609192 354.429504,587.571655 
	C352.235992,587.086670 350.716858,586.935425 349.339752,586.411011 
	C345.476807,584.940063 343.068695,585.803833 341.179260,589.806946 
	C338.631866,595.204102 335.325165,600.240723 332.387024,605.456116 
	C328.687958,612.022156 325.032104,618.612610 320.856659,626.089478 
	C320.641693,624.015259 320.515778,623.050659 320.445221,622.081970 
	C319.515015,609.311340 318.669800,596.533447 317.572144,583.777283 
	C317.432343,582.152405 316.353271,579.843323 315.063629,579.246582 
	C312.620270,578.116028 309.708557,577.997498 306.405212,577.342285 
	C308.414429,597.196838 310.367004,616.491577 312.330322,635.892456 
	C314.505798,636.357239 316.594147,636.456177 318.370758,637.251526 
	C322.769897,639.220642 324.791138,637.163879 326.908203,633.508118 
	C333.487091,622.147644 340.417175,610.990662 347.638489,599.163757 
M498.739716,152.680847 
	C494.154755,151.121567 489.569794,149.562286 484.584747,147.866928 
	C483.931702,151.118454 483.550537,153.016434 483.171539,154.903519 
	C497.661987,158.557602 500.943909,161.824860 497.514069,167.610214 
	C491.246460,166.302917 485.354797,164.438705 479.359467,164.004135 
	C473.488464,163.578598 468.842346,168.233810 467.494690,174.196625 
	C466.352905,179.248672 468.561798,184.698227 473.821991,187.041931 
	C477.729736,188.783051 482.242950,189.165268 486.548096,190.167099 
	C485.886627,193.788986 485.886627,193.788986 493.613678,196.869827 
	C497.464081,189.890427 501.383789,182.955200 505.141724,175.933365 
	C510.557526,165.813873 508.918976,159.455460 498.739716,152.680847 
M551.400696,218.881577 
	C542.833801,215.513229 535.637024,217.959412 532.669312,225.248337 
	C529.603699,232.777817 534.283752,239.543457 545.861267,244.318939 
	C541.634888,249.697678 548.188293,250.816498 549.233215,254.233353 
	C552.553406,251.452148 555.456238,248.978592 558.405579,246.561798 
	C561.361694,244.139481 564.372986,241.784744 567.344849,239.381409 
	C577.605713,231.083405 578.270081,222.199081 569.026733,212.739807 
	C566.318481,209.968246 562.906311,207.884491 559.507446,205.245316 
	C557.871033,207.620743 556.677185,209.353699 555.478699,211.093445 
	C567.362549,218.884415 569.472412,223.795349 563.636292,228.645279 
	C559.746582,225.468048 555.915588,222.338776 551.400696,218.881577 
M622.195312,329.498077 
	C620.042542,320.964264 614.504333,316.029358 605.887756,314.900848 
	C596.964417,313.732117 588.586670,315.331696 583.547119,323.574615 
	C577.642944,333.231842 581.108643,342.685730 585.398804,352.319580 
	C587.887756,351.355286 589.976379,350.546082 592.058411,349.739441 
	C586.367981,334.332245 587.695129,327.806519 597.172546,325.243622 
	C598.607483,334.059387 600.037476,342.844391 601.456360,351.561310 
	C616.422791,351.132385 624.229431,343.029083 622.195312,329.498077 
M231.328156,203.968399 
	C234.911057,210.541550 238.851318,213.152359 244.696854,212.029190 
	C252.119995,210.602875 255.864716,205.425446 257.314301,198.309753 
	C261.184509,200.797073 261.184509,200.797073 267.463135,195.273224 
	C261.960449,188.219086 256.605347,181.028946 250.886246,174.141022 
	C247.288910,169.808502 242.481506,167.397156 236.695877,168.978989 
	C228.500687,171.219589 223.328033,176.931396 219.407166,184.358429 
	C221.470901,185.840210 223.044434,186.970016 224.609802,188.093964 
	C233.684311,176.154053 237.521271,174.616272 242.780502,180.785370 
	C236.299210,186.911560 228.756577,192.544296 231.328156,203.968399 
M193.916275,208.370468 
	C195.220200,209.600235 196.524124,210.829987 197.984024,212.206848 
	C199.364090,210.971054 200.549545,209.909515 201.996353,208.613953 
	C209.946381,216.197357 217.714218,223.606979 224.320755,229.908844 
	C227.294830,227.880157 230.032822,226.012512 231.878967,224.753235 
	C224.271072,216.383698 217.044403,208.433578 209.728638,200.385422 
	C211.193665,198.720413 213.003098,196.663956 214.900208,194.507874 
	C212.955368,192.738831 211.270340,191.206116 208.591003,188.768951 
	C206.916611,191.235504 205.356232,193.534103 203.837982,195.770645 
	C196.378311,189.269257 196.320267,186.705612 203.014847,179.836807 
	C201.403595,178.067139 199.784592,176.288956 198.247360,174.600586 
	C186.446625,181.855286 185.973114,188.731461 195.518188,203.079422 
	C194.722046,204.831573 194.026321,206.362732 193.916275,208.370468 
M453.120941,168.659607 
	C460.417267,159.730072 467.713593,150.800552 475.164642,141.681656 
	C465.137909,138.110825 465.122375,138.099579 459.244843,146.215637 
	C455.236847,151.750092 451.279785,157.321396 446.881653,163.460052 
	C446.881653,152.466141 446.881653,142.390274 446.881653,132.160660 
	C443.644409,131.093643 440.446838,130.039688 437.990723,129.230133 
	C437.990723,141.522171 438.311646,153.462448 437.844971,165.371872 
	C437.635651,170.713730 439.438843,172.756897 444.409637,174.302155 
	C449.908264,176.011505 450.047577,171.009537 453.120941,168.659607 
M308.807953,142.401199 
	C311.578796,140.951553 314.349670,139.501892 317.443787,137.883133 
	C316.830994,135.879120 316.167358,133.708862 315.406189,131.219482 
	C312.193665,132.157471 309.257812,133.014694 306.167206,133.917084 
	C304.994843,130.628708 303.908936,127.582779 302.720673,124.249718 
	C299.574646,126.380203 296.876831,128.207169 294.295441,129.955276 
	C294.987396,132.596420 295.559845,134.781357 296.127747,136.949005 
	C294.185577,137.859802 292.605194,138.600937 291.010284,139.348907 
	C291.896484,141.808182 292.663452,143.936554 293.424377,146.048065 
	C295.364319,145.566223 296.934784,145.176163 298.802155,144.712341 
	C300.939972,151.341858 302.830719,157.868668 305.147430,164.240631 
	C309.039032,174.944199 318.636749,177.050034 327.204224,169.076431 
	C326.405457,167.037552 325.578461,164.926712 324.762390,162.843628 
	C317.153748,165.204819 315.929657,164.604355 313.548950,157.423584 
	C311.981415,152.695572 310.503662,147.937759 308.807953,142.401199 
M357.144562,157.496719 
	C358.549988,149.566101 355.570374,144.578659 347.964691,142.348709 
	C345.576721,141.648560 342.941193,141.583527 340.731415,140.555923 
	C339.175751,139.832520 336.946869,137.731857 337.159271,136.677261 
	C337.498901,134.990784 339.404724,132.756668 341.026733,132.379135 
	C343.996918,131.687775 347.243073,132.182251 350.750092,132.182251 
	C350.893646,130.121933 351.059753,127.737473 351.220520,125.430000 
	C342.784851,123.888298 337.031860,124.753036 332.456879,128.050095 
	C324.617249,133.699936 325.582764,144.169907 334.430023,147.993637 
	C337.142090,149.165771 340.365479,149.219101 342.980042,150.531296 
	C344.922821,151.506363 346.260864,153.686386 347.868286,155.329727 
	C345.985107,156.889511 344.303162,159.311035 342.171906,159.808807 
	C338.906433,160.571518 335.331421,160.009079 331.280670,160.009079 
	C331.169739,161.731476 331.016663,164.108627 330.869110,166.399704 
	C342.861969,169.589249 352.132935,166.598572 357.144562,157.496719 
M164.436646,255.994141 
	C165.444656,256.488800 166.452667,256.983429 167.526871,257.510559 
	C168.570877,255.983795 169.498444,254.627304 170.600113,253.016205 
	C173.325943,254.659607 176.001907,256.285583 178.690475,257.890442 
	C181.538330,259.590363 184.282913,261.523956 187.285294,262.887024 
	C190.247971,264.232086 193.430542,265.631256 196.599380,265.859985 
	C201.586334,266.219879 207.554916,260.598999 207.749634,254.995438 
	C207.816513,253.071136 204.689011,251.035812 202.846039,248.843231 
	C198.338821,255.426712 196.884323,256.457672 193.331970,254.585617 
	C187.379440,251.448700 181.684845,247.822296 175.778000,244.340744 
	C177.480972,241.304138 178.912384,238.751785 180.501205,235.918716 
	C178.347168,234.573685 176.436325,233.380508 174.282898,232.035858 
	C172.477020,234.778641 170.776810,237.360916 168.921417,240.178909 
	C167.322403,239.224747 165.941345,238.378006 164.538101,237.569763 
	C163.170044,236.781784 161.779297,236.033173 160.363831,235.248032 
	C157.220184,243.762375 157.220184,243.762375 163.228012,249.284958 
	C161.347351,253.547073 161.347351,253.547073 164.436646,255.994141 
M279.787506,143.038208 
	C277.748535,143.739594 275.639069,144.284943 273.682709,145.169098 
	C264.701355,149.228134 259.439178,157.270813 260.009399,165.873398 
	C260.605133,174.860886 267.195679,183.754959 274.878326,185.939331 
	C283.158630,188.293610 293.805359,184.334473 299.669342,176.568436 
	C298.318237,174.803955 296.923370,172.982330 295.413361,171.010315 
	C290.186066,175.742691 284.567596,179.588898 277.471558,175.844849 
	C272.404205,173.171204 269.782562,168.290863 270.118286,162.591980 
	C270.612366,154.204803 277.133820,151.723892 285.505402,149.689468 
	C283.576843,147.030472 282.093719,144.985580 279.787506,143.038208 
M369.132385,641.922180 
	C372.038116,642.309753 374.943848,642.697388 378.962585,643.233459 
	C378.962585,624.729919 378.962585,606.904907 378.962585,588.966797 
	C371.779755,587.756287 367.509644,588.951538 358.169800,595.115601 
	C358.694550,597.373474 359.233398,599.692078 359.812225,602.182617 
	C363.330933,600.615967 366.301025,599.293579 368.845062,598.160889 
	C368.845062,612.607361 368.845062,626.826904 369.132385,641.922180 
M421.780151,588.251099 
	C419.989502,589.701233 418.198883,591.151428 416.227631,592.747864 
	C417.349335,595.149109 418.363464,597.320129 419.499908,599.752991 
	C422.565369,597.438171 425.243164,595.416138 428.311066,593.099487 
	C431.707001,608.022827 434.936066,622.212952 438.215179,636.622864 
	C441.656555,635.854675 444.639160,635.188843 447.866394,634.468445 
	C443.830963,616.606995 439.925659,599.321655 435.663422,580.456299 
	C430.706970,583.177307 426.510956,585.480835 421.780151,588.251099 
M602.293640,303.753632 
	C612.178528,300.618988 622.063416,297.484375 632.189514,294.273254 
	C631.048767,290.787323 630.089294,287.855469 629.011475,284.561981 
	C610.009338,290.526733 591.417236,296.362762 572.663757,302.249420 
	C573.756775,305.722321 574.692688,308.695953 575.732788,312.000763 
	C584.498535,309.270294 593.010986,306.618744 602.293640,303.753632 
M549.531128,194.039154 
	C553.981628,189.238342 558.432190,184.437515 562.933960,179.581406 
	C560.210083,177.055038 557.920532,174.931534 555.482910,172.670670 
	C541.927124,187.095322 528.608948,201.267197 515.021484,215.725571 
	C517.518616,218.082199 519.905151,220.334518 522.468140,222.753311 
	C531.481567,213.199402 540.270874,203.882965 549.531128,194.039154 
M520.174133,177.626862 
	C513.622925,186.147141 507.071777,194.667435 500.375946,203.375854 
	C503.227661,205.566284 505.785400,207.530884 508.495941,209.612854 
	C516.920471,198.690918 525.005676,188.208984 533.274902,177.488434 
	C530.514587,175.375366 527.955322,173.416275 525.187622,171.297562 
	C523.484680,173.462799 522.064026,175.269058 520.174133,177.626862 
M209.227463,232.286285 
	C201.705734,226.511810 194.184021,220.737335 186.428452,214.783340 
	C184.349442,217.503632 182.384293,220.074936 180.211395,222.918076 
	C191.131226,231.315704 201.645981,239.401810 212.280457,247.579987 
	C213.552383,245.997910 214.622147,244.737564 215.611206,243.416794 
	C216.558426,242.151871 217.421860,240.824173 218.261826,239.611130 
	C217.735458,239.029129 217.544662,238.744919 217.287933,238.545624 
	C214.789581,236.606186 212.280212,234.680939 209.227463,232.286285 
M404.776917,629.952026 
	C400.066833,632.087830 398.438782,635.845703 400.535706,639.741699 
	C402.278564,642.979919 406.812714,644.327209 409.427673,641.709106 
	C411.021606,640.113281 411.993927,637.104492 411.889282,634.791687 
	C411.735809,631.399292 409.082214,629.741150 404.776917,629.952026 
M539.392883,170.084274 
	C540.093384,167.922485 541.715393,165.555389 541.289612,163.644485 
	C540.554199,160.343399 537.283936,158.729309 534.331970,160.279465 
	C532.543030,161.218872 530.672302,164.432770 530.931580,166.340225 
	C531.484131,170.405258 534.654175,171.837631 539.392883,170.084274 
M172.953613,206.360977 
	C169.765518,207.648987 167.917755,210.145096 169.070877,213.334213 
	C169.698883,215.071091 172.246399,217.257385 173.857330,217.201416 
	C175.802689,217.133865 178.384201,215.317596 179.423035,213.524139 
	C181.393311,210.122513 178.785828,207.079483 172.953613,206.360977 
z"/>
<path fill="#FCFEFC" opacity="1.000000" stroke="none" 
	d="
M332.420715,474.579102 
	C299.897064,442.065765 267.623413,409.802429 235.711166,377.900360 
	C283.340546,330.265198 330.867798,282.732086 378.034241,235.559875 
	C425.139923,282.667114 472.667175,330.195923 519.944397,377.474670 
	C472.841248,424.573364 425.399780,472.010284 377.608704,519.796875 
	C362.748230,504.926544 347.709473,489.877838 332.420715,474.579102 
M440.050171,309.440552 
	C410.259766,283.037628 369.125061,277.834625 334.689484,296.113739 
	C300.809479,314.097961 281.282440,351.509033 287.291168,390.158539 
	C293.093140,427.478241 314.615570,453.286926 350.654755,464.468414 
	C387.270325,475.828796 419.939209,466.661346 446.127380,438.414581 
	C479.348694,402.581909 477.936859,344.766052 440.050171,309.440552 
z"/>
<path fill="#F8FCF8" opacity="1.000000" stroke="none" 
	d="
M589.045898,242.084625 
	C594.876526,239.202499 600.362976,236.465057 606.372375,233.466751 
	C607.918213,236.572266 609.353088,239.454926 610.927429,242.617783 
	C603.929749,246.170639 597.154053,249.610809 589.808838,253.340118 
	C597.816833,255.663666 601.907288,260.824249 602.685913,268.124298 
	C603.449524,275.282990 599.603699,280.604950 593.857361,284.380402 
	C590.981445,286.269928 587.741211,287.905060 584.434143,288.785522 
	C571.328857,292.274750 557.187378,283.295959 561.781677,265.888275 
	C560.274719,266.342224 558.924805,266.748840 557.215088,267.263855 
	C555.983643,264.872925 554.791504,262.558197 553.416504,259.888611 
	C565.364197,253.909134 577.033020,248.069229 589.045898,242.084625 
M592.519043,270.517853 
	C593.880493,266.366760 593.366089,262.587128 589.869812,259.720734 
	C586.250610,256.753601 582.273376,256.950226 578.258667,259.010132 
	C576.494385,259.915375 574.687012,260.742004 572.957764,261.709106 
	C568.553650,264.172211 566.741699,268.509491 568.164307,273.010742 
	C569.559387,277.424744 573.729980,280.176727 578.659973,279.462952 
	C584.255676,278.652802 589.091614,276.323029 592.519043,270.517853 
z"/>
<path fill="#F9FCF9" opacity="1.000000" stroke="none" 
	d="
M418.304291,126.571747 
	C421.140869,140.324127 423.877441,153.666595 426.726868,167.559387 
	C423.572937,167.295700 420.728394,167.430328 418.138214,166.683105 
	C416.856415,166.313324 415.506866,164.464310 415.119476,163.032532 
	C413.999939,158.894531 413.353027,154.628662 412.476105,150.187729 
	C406.538422,149.495712 400.819244,148.829178 394.893829,148.138596 
	C393.420471,151.556625 391.712524,154.641846 390.758423,157.944824 
	C389.438324,162.514771 386.832764,164.036652 382.347076,162.814240 
	C381.088196,162.471191 379.762115,162.374680 377.843536,162.064240 
	C379.925812,157.442184 381.864838,153.152222 383.792267,148.857025 
	C389.091583,137.047745 394.560974,125.309944 399.581970,113.383423 
	C401.218048,109.497192 403.183960,107.908104 407.340851,108.954247 
	C409.721008,109.553246 412.229736,109.641190 414.962891,109.995850 
	C416.058624,115.460800 417.131439,120.811333 418.304291,126.571747 
M398.405518,138.203842 
	C398.649658,139.088074 398.790161,140.693680 399.153839,140.745911 
	C403.166168,141.322266 407.213196,141.657227 411.621246,142.094299 
	C410.073486,133.945221 408.659576,126.500839 407.048279,118.017105 
	C403.954590,125.304520 401.367584,131.398392 398.405518,138.203842 
z"/>
<path fill="#F9FCF9" opacity="1.000000" stroke="none" 
	d="
M127.414825,324.567200 
	C120.279800,320.568329 120.279800,320.568329 124.212311,308.161499 
	C143.419144,306.152130 162.728317,304.132019 182.521347,302.061310 
	C181.730164,305.970673 181.049454,309.334167 180.361465,312.733673 
	C177.305008,313.113739 174.516571,313.493652 171.720261,313.801910 
	C163.680939,314.688293 163.680038,314.676971 161.975784,322.701538 
	C161.356247,325.618591 160.734589,328.535217 160.032501,331.834503 
	C163.040405,333.520844 165.925568,335.514771 169.093719,336.823853 
	C173.533966,338.658569 175.303146,341.284637 173.283417,345.942841 
	C172.782440,347.098267 172.633698,348.406403 172.192413,350.164917 
	C157.089569,341.545624 142.400772,333.162659 127.414825,324.567200 
M141.289185,322.149689 
	C145.003174,324.238434 148.717178,326.327179 152.818466,328.633759 
	C153.801743,323.772400 154.668915,319.485077 155.638214,314.692841 
	C147.301285,315.379059 139.659653,316.008026 130.630066,316.751282 
	C134.790344,318.883484 137.700455,320.374969 141.289185,322.149689 
z"/>
<path fill="#FAFDFA" opacity="1.000000" stroke="none" 
	d="
M347.424774,599.459229 
	C340.417175,610.990662 333.487091,622.147644 326.908203,633.508118 
	C324.791138,637.163879 322.769897,639.220642 318.370758,637.251526 
	C316.594147,636.456177 314.505798,636.357239 312.330322,635.892456 
	C310.367004,616.491577 308.414429,597.196838 306.405212,577.342285 
	C309.708557,577.997498 312.620270,578.116028 315.063629,579.246582 
	C316.353271,579.843323 317.432343,582.152405 317.572144,583.777283 
	C318.669800,596.533447 319.515015,609.311340 320.445221,622.081970 
	C320.515778,623.050659 320.641693,624.015259 320.856659,626.089478 
	C325.032104,618.612610 328.687958,612.022156 332.387024,605.456116 
	C335.325165,600.240723 338.631866,595.204102 341.179260,589.806946 
	C343.068695,585.803833 345.476807,584.940063 349.339752,586.411011 
	C350.716858,586.935425 352.235992,587.086670 354.429504,587.571655 
	C352.064178,591.609192 349.851349,595.386475 347.424774,599.459229 
z"/>
<path fill="#F9FCF9" opacity="1.000000" stroke="none" 
	d="
M499.071899,152.841583 
	C508.918976,159.455460 510.557526,165.813873 505.141724,175.933365 
	C501.383789,182.955200 497.464081,189.890427 493.613678,196.869827 
	C485.886627,193.788986 485.886627,193.788986 486.548096,190.167099 
	C482.242950,189.165268 477.729736,188.783051 473.821991,187.041931 
	C468.561798,184.698227 466.352905,179.248672 467.494690,174.196625 
	C468.842346,168.233810 473.488464,163.578598 479.359467,164.004135 
	C485.354797,164.438705 491.246460,166.302917 497.514069,167.610214 
	C500.943909,161.824860 497.661987,158.557602 483.171539,154.903519 
	C483.550537,153.016434 483.931702,151.118454 484.584747,147.866928 
	C489.569794,149.562286 494.154755,151.121567 499.071899,152.841583 
M479.521332,172.945206 
	C478.992889,175.318848 477.308563,178.401245 478.221924,179.890854 
	C479.425629,181.854019 482.643829,183.552780 485.041321,183.614944 
	C490.346100,183.752487 492.111420,179.230698 494.076385,174.902924 
	C489.535522,172.574188 485.337158,169.837891 479.521332,172.945206 
z"/>
<path fill="#F8FCF8" opacity="1.000000" stroke="none" 
	d="
M551.742676,219.045532 
	C555.915588,222.338776 559.746582,225.468048 563.636292,228.645279 
	C569.472412,223.795349 567.362549,218.884415 555.478699,211.093445 
	C556.677185,209.353699 557.871033,207.620743 559.507446,205.245316 
	C562.906311,207.884491 566.318481,209.968246 569.026733,212.739807 
	C578.270081,222.199081 577.605713,231.083405 567.344849,239.381409 
	C564.372986,241.784744 561.361694,244.139481 558.405579,246.561798 
	C555.456238,248.978592 552.553406,251.452148 549.233215,254.233353 
	C548.188293,250.816498 541.634888,249.697678 545.861267,244.318939 
	C534.283752,239.543457 529.603699,232.777817 532.669312,225.248337 
	C535.637024,217.959412 542.833801,215.513229 551.742676,219.045532 
M553.036560,228.264465 
	C549.995483,226.197464 546.597656,224.460220 543.619019,227.635376 
	C542.252197,229.092331 541.186890,232.955200 542.043640,233.944946 
	C543.988037,236.191315 547.212402,238.588577 549.908508,238.579453 
	C552.731079,238.569916 555.544373,235.817642 559.569519,233.598282 
	C556.957886,231.472458 555.281067,230.107559 553.036560,228.264465 
z"/>
<path fill="#F8FCF8" opacity="1.000000" stroke="none" 
	d="
M622.288330,329.896790 
	C624.229431,343.029083 616.422791,351.132385 601.456360,351.561310 
	C600.037476,342.844391 598.607483,334.059387 597.172546,325.243622 
	C587.695129,327.806519 586.367981,334.332245 592.058411,349.739441 
	C589.976379,350.546082 587.887756,351.355286 585.398804,352.319580 
	C581.108643,342.685730 577.642944,333.231842 583.547119,323.574615 
	C588.586670,315.331696 596.964417,313.732117 605.887756,314.900848 
	C614.504333,316.029358 620.042542,320.964264 622.288330,329.896790 
M615.729919,333.350586 
	C614.444336,325.967346 610.825867,323.165314 604.354675,324.647308 
	C605.268555,330.141357 606.183044,335.639099 607.115723,341.246552 
	C611.782227,340.451691 614.697571,338.418182 615.729919,333.350586 
z"/>
<path fill="#F9FCF9" opacity="1.000000" stroke="none" 
	d="
M231.202011,203.612610 
	C228.756577,192.544296 236.299210,186.911560 242.780502,180.785370 
	C237.521271,174.616272 233.684311,176.154053 224.609802,188.093964 
	C223.044434,186.970016 221.470901,185.840210 219.407166,184.358429 
	C223.328033,176.931396 228.500687,171.219589 236.695877,168.978989 
	C242.481506,167.397156 247.288910,169.808502 250.886246,174.141022 
	C256.605347,181.028946 261.960449,188.219086 267.463135,195.273224 
	C261.184509,200.797073 261.184509,200.797073 257.314301,198.309753 
	C255.864716,205.425446 252.119995,210.602875 244.696854,212.029190 
	C238.851318,213.152359 234.911057,210.541550 231.202011,203.612610 
M240.925018,200.625198 
	C244.170151,204.232803 247.343887,203.518768 250.267273,200.293488 
	C254.009003,196.165359 252.995483,191.757446 247.222244,186.327255 
	C239.954269,191.694580 238.634827,194.381744 240.925018,200.625198 
z"/>
<path fill="#F9FCF9" opacity="1.000000" stroke="none" 
	d="
M193.623444,208.132172 
	C194.026321,206.362732 194.722046,204.831573 195.518188,203.079422 
	C185.973114,188.731461 186.446625,181.855286 198.247360,174.600586 
	C199.784592,176.288956 201.403595,178.067139 203.014847,179.836807 
	C196.320267,186.705612 196.378311,189.269257 203.837982,195.770645 
	C205.356232,193.534103 206.916611,191.235504 208.591003,188.768951 
	C211.270340,191.206116 212.955368,192.738831 214.900208,194.507874 
	C213.003098,196.663956 211.193665,198.720413 209.728638,200.385422 
	C217.044403,208.433578 224.271072,216.383698 231.878967,224.753235 
	C230.032822,226.012512 227.294830,227.880157 224.320755,229.908844 
	C217.714218,223.606979 209.946381,216.197357 201.996353,208.613953 
	C200.549545,209.909515 199.364090,210.971054 197.984024,212.206848 
	C196.524124,210.829987 195.220200,209.600235 193.623444,208.132172 
z"/>
<path fill="#F9FCF9" opacity="1.000000" stroke="none" 
	d="
M452.911407,168.948044 
	C450.047577,171.009537 449.908264,176.011505 444.409637,174.302155 
	C439.438843,172.756897 437.635651,170.713730 437.844971,165.371872 
	C438.311646,153.462448 437.990723,141.522171 437.990723,129.230133 
	C440.446838,130.039688 443.644409,131.093643 446.881653,132.160660 
	C446.881653,142.390274 446.881653,152.466141 446.881653,163.460052 
	C451.279785,157.321396 455.236847,151.750092 459.244843,146.215637 
	C465.122375,138.099579 465.137909,138.110825 475.164642,141.681656 
	C467.713593,150.800552 460.417267,159.730072 452.911407,168.948044 
z"/>
<path fill="#F7FBF7" opacity="1.000000" stroke="none" 
	d="
M308.896820,142.797241 
	C310.503662,147.937759 311.981415,152.695572 313.548950,157.423584 
	C315.929657,164.604355 317.153748,165.204819 324.762390,162.843628 
	C325.578461,164.926712 326.405457,167.037552 327.204224,169.076431 
	C318.636749,177.050034 309.039032,174.944199 305.147430,164.240631 
	C302.830719,157.868668 300.939972,151.341858 298.802155,144.712341 
	C296.934784,145.176163 295.364319,145.566223 293.424377,146.048065 
	C292.663452,143.936554 291.896484,141.808182 291.010284,139.348907 
	C292.605194,138.600937 294.185577,137.859802 296.127747,136.949005 
	C295.559845,134.781357 294.987396,132.596420 294.295441,129.955276 
	C296.876831,128.207169 299.574646,126.380203 302.720673,124.249718 
	C303.908936,127.582779 304.994843,130.628708 306.167206,133.917084 
	C309.257812,133.014694 312.193665,132.157471 315.406189,131.219482 
	C316.167358,133.708862 316.830994,135.879120 317.443787,137.883133 
	C314.349670,139.501892 311.578796,140.951553 308.896820,142.797241 
z"/>
<path fill="#F8FCF8" opacity="1.000000" stroke="none" 
	d="
M357.059967,157.868851 
	C352.132935,166.598572 342.861969,169.589249 330.869110,166.399704 
	C331.016663,164.108627 331.169739,161.731476 331.280670,160.009079 
	C335.331421,160.009079 338.906433,160.571518 342.171906,159.808807 
	C344.303162,159.311035 345.985107,156.889511 347.868286,155.329712 
	C346.260864,153.686386 344.922821,151.506363 342.980042,150.531296 
	C340.365479,149.219101 337.142090,149.165771 334.430023,147.993637 
	C325.582764,144.169907 324.617249,133.699936 332.456879,128.050095 
	C337.031860,124.753036 342.784851,123.888298 351.220520,125.430000 
	C351.059753,127.737473 350.893646,130.121933 350.750092,132.182251 
	C347.243073,132.182251 343.996918,131.687775 341.026733,132.379135 
	C339.404724,132.756668 337.498901,134.990784 337.159271,136.677261 
	C336.946869,137.731857 339.175751,139.832520 340.731415,140.555923 
	C342.941193,141.583527 345.576721,141.648560 347.964691,142.348709 
	C355.570374,144.578659 358.549988,149.566101 357.059967,157.868851 
z"/>
<path fill="#F9FCF9" opacity="1.000000" stroke="none" 
	d="
M164.063553,255.797791 
	C161.347351,253.547073 161.347351,253.547073 163.228012,249.284958 
	C157.220184,243.762375 157.220184,243.762375 160.363831,235.248032 
	C161.779297,236.033173 163.170044,236.781784 164.538101,237.569763 
	C165.941345,238.378006 167.322403,239.224747 168.921417,240.178909 
	C170.776810,237.360916 172.477020,234.778641 174.282898,232.035858 
	C176.436325,233.380508 178.347168,234.573685 180.501205,235.918716 
	C178.912384,238.751785 177.480972,241.304138 175.778000,244.340744 
	C181.684845,247.822296 187.379440,251.448700 193.331970,254.585617 
	C196.884323,256.457672 198.338821,255.426712 202.846039,248.843231 
	C204.689011,251.035812 207.816513,253.071136 207.749634,254.995438 
	C207.554916,260.598999 201.586334,266.219879 196.599380,265.859985 
	C193.430542,265.631256 190.247971,264.232086 187.285294,262.887024 
	C184.282913,261.523956 181.538330,259.590363 178.690475,257.890442 
	C176.001907,256.285583 173.325943,254.659607 170.600113,253.016205 
	C169.498444,254.627304 168.570877,255.983795 167.526871,257.510559 
	C166.452667,256.983429 165.444656,256.488800 164.063553,255.797791 
z"/>
<path fill="#F9FCF9" opacity="1.000000" stroke="none" 
	d="
M280.199036,142.989441 
	C282.093719,144.985580 283.576843,147.030472 285.505402,149.689468 
	C277.133820,151.723892 270.612366,154.204803 270.118286,162.591980 
	C269.782562,168.290863 272.404205,173.171204 277.471558,175.844849 
	C284.567596,179.588898 290.186066,175.742691 295.413361,171.010315 
	C296.923370,172.982330 298.318237,174.803955 299.669342,176.568436 
	C293.805359,184.334473 283.158630,188.293610 274.878326,185.939331 
	C267.195679,183.754959 260.605133,174.860886 260.009399,165.873398 
	C259.439178,157.270813 264.701355,149.228134 273.682709,145.169098 
	C275.639069,144.284943 277.748535,143.739594 280.199036,142.989441 
z"/>
<path fill="#FAFDFA" opacity="1.000000" stroke="none" 
	d="
M368.988708,641.484253 
	C368.845062,626.826904 368.845062,612.607361 368.845062,598.160889 
	C366.301025,599.293579 363.330933,600.615967 359.812225,602.182617 
	C359.233398,599.692078 358.694550,597.373474 358.169800,595.115601 
	C367.509644,588.951538 371.779755,587.756287 378.962585,588.966797 
	C378.962585,606.904907 378.962585,624.729919 378.962585,643.233459 
	C374.943848,642.697388 372.038116,642.309753 368.988708,641.484253 
z"/>
<path fill="#F8FCF8" opacity="1.000000" stroke="none" 
	d="
M422.047546,588.017700 
	C426.510956,585.480835 430.706970,583.177307 435.663422,580.456299 
	C439.925659,599.321655 443.830963,616.606995 447.866394,634.468445 
	C444.639160,635.188843 441.656555,635.854675 438.215179,636.622864 
	C434.936066,622.212952 431.707001,608.022827 428.311066,593.099487 
	C425.243164,595.416138 422.565369,597.438171 419.499908,599.752991 
	C418.363464,597.320129 417.349335,595.149109 416.227631,592.747864 
	C418.198883,591.151428 419.989502,589.701233 422.047546,588.017700 
z"/>
<path fill="#F8FCF8" opacity="1.000000" stroke="none" 
	d="
M601.908508,303.860413 
	C593.010986,306.618744 584.498535,309.270294 575.732788,312.000763 
	C574.692688,308.695953 573.756775,305.722321 572.663757,302.249420 
	C591.417236,296.362762 610.009338,290.526733 629.011475,284.561981 
	C630.089294,287.855469 631.048767,290.787323 632.189514,294.273254 
	C622.063416,297.484375 612.178528,300.618988 601.908508,303.860413 
z"/>
<path fill="#F8FCF8" opacity="1.000000" stroke="none" 
	d="
M549.295654,194.302856 
	C540.270874,203.882965 531.481567,213.199402 522.468140,222.753311 
	C519.905151,220.334518 517.518616,218.082199 515.021484,215.725571 
	C528.608948,201.267197 541.927124,187.095322 555.482910,172.670670 
	C557.920532,174.931534 560.210083,177.055038 562.933960,179.581406 
	C558.432190,184.437515 553.981628,189.238342 549.295654,194.302856 
z"/>
<path fill="#F7FBF7" opacity="1.000000" stroke="none" 
	d="
M156.941956,274.405884 
	C154.859680,270.067841 153.752029,265.733521 157.022217,261.067291 
	C159.796341,262.248352 162.471878,263.387451 165.106232,264.509003 
	C162.356827,274.918304 163.531601,277.268066 173.395767,281.452759 
	C178.734024,283.717438 184.085083,285.951965 189.986374,288.433929 
	C188.759186,291.481171 187.566437,294.442902 186.181702,297.881348 
	C173.591812,292.671204 161.266373,287.570496 148.435638,282.260651 
	C151.217072,280.199036 148.671448,274.123047 155.459808,275.572205 
	C156.673645,275.841980 157.265594,275.856476 157.857544,275.871002 
	C157.552338,275.382629 157.247147,274.894257 156.941956,274.405884 
z"/>
<path fill="#F8FCF8" opacity="1.000000" stroke="none" 
	d="
M520.408813,177.351089 
	C522.064026,175.269058 523.484680,173.462799 525.187622,171.297562 
	C527.955322,173.416275 530.514587,175.375366 533.274902,177.488434 
	C525.005676,188.208984 516.920471,198.690918 508.495941,209.612854 
	C505.785400,207.530884 503.227661,205.566284 500.375946,203.375854 
	C507.071777,194.667435 513.622925,186.147141 520.408813,177.351089 
z"/>
<path fill="#F9FCF9" opacity="1.000000" stroke="none" 
	d="
M209.500732,232.518967 
	C212.280212,234.680939 214.789581,236.606186 217.287933,238.545624 
	C217.544662,238.744919 217.735458,239.029129 218.261826,239.611130 
	C217.421860,240.824173 216.558426,242.151871 215.611206,243.416794 
	C214.622147,244.737564 213.552383,245.997910 212.280457,247.579987 
	C201.645981,239.401810 191.131226,231.315704 180.211395,222.918076 
	C182.384293,220.074936 184.349442,217.503632 186.428452,214.783340 
	C194.184021,220.737335 201.705734,226.511810 209.500732,232.518967 
z"/>
<path fill="#F9FCF9" opacity="1.000000" stroke="none" 
	d="
M405.185394,629.888611 
	C409.082214,629.741150 411.735809,631.399292 411.889282,634.791687 
	C411.993927,637.104492 411.021606,640.113281 409.427673,641.709106 
	C406.812714,644.327209 402.278564,642.979919 400.535706,639.741699 
	C398.438782,635.845703 400.066833,632.087830 405.185394,629.888611 
z"/>
<path fill="#F8FCF8" opacity="1.000000" stroke="none" 
	d="
M539.059814,170.288147 
	C534.654175,171.837631 531.484131,170.405258 530.931580,166.340225 
	C530.672302,164.432770 532.543030,161.218872 534.331970,160.279465 
	C537.283936,158.729309 540.554199,160.343399 541.289612,163.644485 
	C541.715393,165.555389 540.093384,167.922485 539.059814,170.288147 
z"/>
<path fill="#F7FBF7" opacity="1.000000" stroke="none" 
	d="
M173.332138,206.274872 
	C178.785828,207.079483 181.393311,210.122513 179.423035,213.524139 
	C178.384201,215.317596 175.802689,217.133865 173.857330,217.201416 
	C172.246399,217.257385 169.698883,215.071091 169.070877,213.334213 
	C167.917755,210.145096 169.765518,207.648987 173.332138,206.274872 
z"/>
<path fill="#068E06" opacity="1.000000" stroke="none" 
	d="
M440.302887,309.690125 
	C477.936859,344.766052 479.348694,402.581909 446.127380,438.414581 
	C419.939209,466.661346 387.270325,475.828796 350.654755,464.468414 
	C314.615570,453.286926 293.093140,427.478241 287.291168,390.158539 
	C281.282440,351.509033 300.809479,314.097961 334.689484,296.113739 
	C369.125061,277.834625 410.259766,283.037628 440.302887,309.690125 
M412.647614,306.761353 
	C401.614746,301.142365 389.815704,298.390137 377.528503,298.595306 
	C335.981689,299.289032 303.076355,330.318176 299.818787,371.539307 
	C297.103516,405.898285 317.882812,438.315674 350.518494,450.635040 
	C382.704132,462.784515 419.593048,452.108429 440.375214,424.629395 
	C470.131927,385.283966 457.711914,331.257599 412.647614,306.761353 
z"/>
<path fill="#078E07" opacity="1.000000" stroke="none" 
	d="
M592.320435,270.857697 
	C589.091614,276.323029 584.255676,278.652802 578.659973,279.462952 
	C573.729980,280.176727 569.559387,277.424744 568.164307,273.010742 
	C566.741699,268.509491 568.553650,264.172211 572.957764,261.709106 
	C574.687012,260.742004 576.494385,259.915375 578.258667,259.010132 
	C582.273376,256.950226 586.250610,256.753601 589.869812,259.720734 
	C593.366089,262.587128 593.880493,266.366760 592.320435,270.857697 
z"/>
<path fill="#0D910D" opacity="1.000000" stroke="none" 
	d="
M398.593079,137.848053 
	C401.367584,131.398392 403.954590,125.304520 407.048279,118.017105 
	C408.659576,126.500839 410.073486,133.945221 411.621246,142.094299 
	C407.213196,141.657227 403.166168,141.322266 399.153839,140.745911 
	C398.790161,140.693680 398.649658,139.088074 398.593079,137.848053 
z"/>
<path fill="#0E910E" opacity="1.000000" stroke="none" 
	d="
M140.949875,322.008057 
	C137.700455,320.374969 134.790344,318.883484 130.630066,316.751282 
	C139.659653,316.008026 147.301285,315.379059 155.638214,314.692841 
	C154.668915,319.485077 153.801743,323.772400 152.818466,328.633759 
	C148.717178,326.327179 145.003174,324.238434 140.949875,322.008057 
z"/>
<path fill="#0D910D" opacity="1.000000" stroke="none" 
	d="
M479.820984,172.715912 
	C485.337158,169.837891 489.535522,172.574188 494.076385,174.902924 
	C492.111420,179.230698 490.346100,183.752487 485.041321,183.614944 
	C482.643829,183.552780 479.425629,181.854019 478.221924,179.890854 
	C477.308563,178.401245 478.992889,175.318848 479.820984,172.715912 
z"/>
<path fill="#0A900A" opacity="1.000000" stroke="none" 
	d="
M553.320374,228.503571 
	C555.281067,230.107559 556.957886,231.472458 559.569519,233.598282 
	C555.544373,235.817642 552.731079,238.569916 549.908508,238.579453 
	C547.212402,238.588577 543.988037,236.191315 542.043640,233.944946 
	C541.186890,232.955200 542.252197,229.092331 543.619019,227.635376 
	C546.597656,224.460220 549.995483,226.197464 553.320374,228.503571 
z"/>
<path fill="#0C900C" opacity="1.000000" stroke="none" 
	d="
M615.686035,333.728149 
	C614.697571,338.418182 611.782227,340.451691 607.115723,341.246552 
	C606.183044,335.639099 605.268555,330.141357 604.354675,324.647308 
	C610.825867,323.165314 614.444336,325.967346 615.686035,333.728149 
z"/>
<path fill="#0B900B" opacity="1.000000" stroke="none" 
	d="
M240.713379,200.319794 
	C238.634827,194.381744 239.954269,191.694580 247.222244,186.327255 
	C252.995483,191.757446 254.009003,196.165359 250.267273,200.293488 
	C247.343887,203.518768 244.170151,204.232803 240.713379,200.319794 
z"/>
<path fill="#018C01" opacity="1.000000" stroke="none" 
	d="
M156.603790,274.646057 
	C157.247147,274.894257 157.552338,275.382629 157.857544,275.871002 
	C157.265594,275.856476 156.673645,275.841980 155.849197,275.615173 
	C155.833023,275.230682 156.049332,275.058441 156.603790,274.646057 
z"/>
<path fill="#FDFEFD" opacity="1.000000" stroke="none" 
	d="
M412.995514,306.901947 
	C457.711914,331.257599 470.131927,385.283966 440.375214,424.629395 
	C419.593048,452.108429 382.704132,462.784515 350.518494,450.635040 
	C317.882812,438.315674 297.103516,405.898285 299.818787,371.539307 
	C303.076355,330.318176 335.981689,299.289032 377.528503,298.595306 
	C389.815704,298.390137 401.614746,301.142365 412.995514,306.901947 
M434.990326,381.543427 
	C434.990326,386.639038 434.990326,391.734650 434.990326,396.851746 
	C439.416687,396.851746 443.211853,396.851746 446.975983,396.851746 
	C446.975983,386.578400 447.389740,376.440308 446.822845,366.357300 
	C446.475464,360.178101 441.569489,356.294983 435.368652,357.191040 
	C431.010590,357.820801 426.922791,360.321045 422.409119,362.106781 
	C416.319794,355.350403 411.657043,354.956696 402.073608,360.815613 
	C398.313965,355.425110 393.178131,359.111908 388.850128,357.963379 
	C388.850128,371.374176 388.850128,384.092712 388.850128,396.635681 
	C393.130646,396.635681 397.029480,396.635681 401.009827,396.635681 
	C401.009827,388.432617 400.873322,380.598907 401.122742,372.777527 
	C401.173859,371.174866 402.270477,368.871124 403.572418,368.174225 
	C408.346100,365.618713 411.633148,367.993469 411.773712,374.048309 
	C411.949707,381.628754 411.816010,389.216431 411.816010,396.781372 
	C416.258301,396.781372 420.026245,396.781372 424.180664,396.781372 
	C424.180664,388.602264 424.415375,380.636292 424.087677,372.693481 
	C423.907288,368.320312 426.744110,367.665405 429.670441,367.292969 
	C432.904785,366.881348 434.596252,369.038544 434.850861,372.072723 
	C435.087067,374.887421 434.958374,377.732727 434.990326,381.543427 
M343.164825,368.917908 
	C342.747437,362.755280 339.263367,359.252197 333.447968,357.882751 
	C325.676270,356.052582 317.997772,356.631378 310.275574,358.774139 
	C310.275574,362.027344 310.275574,365.066772 310.275574,368.161499 
	C326.631012,364.665710 329.071533,364.996246 330.542786,370.519623 
	C324.770325,371.854614 318.786560,372.639984 313.266571,374.680145 
	C307.529114,376.800690 305.498169,382.727448 307.080872,389.380554 
	C308.272614,394.390076 312.908112,398.282990 318.501434,397.866058 
	C322.608368,397.559906 326.619873,395.973297 330.632538,394.967682 
	C333.860992,399.740509 338.858826,395.662964 342.978027,397.138123 
	C343.096710,395.953857 343.158508,395.622803 343.158875,395.291718 
	C343.167847,386.806030 343.170410,378.320343 343.164825,368.917908 
M369.639404,366.016083 
	C373.741516,367.380371 377.843628,368.744629 382.525513,370.301727 
	C382.525513,367.680908 382.666840,364.742218 382.443054,361.831635 
	C382.372040,360.908020 381.526703,359.731567 380.697418,359.228363 
	C374.465485,355.447083 361.000549,356.474670 354.965454,361.062561 
	C348.623627,365.883698 345.974640,375.282990 348.443939,384.202484 
	C351.334442,394.643341 362.557465,400.317413 375.034760,397.646149 
	C383.024414,395.935608 384.635376,392.701385 381.372742,384.248291 
	C376.122009,388.286835 370.471954,391.556763 364.182159,387.003601 
	C359.873444,383.884583 360.023956,378.960480 360.814941,374.233887 
	C361.570557,369.718506 363.928711,366.588867 369.639404,366.016083 
z"/>
<path fill="#078E07" opacity="1.000000" stroke="none" 
	d="
M434.990356,381.054016 
	C434.958374,377.732727 435.087067,374.887421 434.850861,372.072723 
	C434.596252,369.038544 432.904785,366.881348 429.670441,367.292969 
	C426.744110,367.665405 423.907288,368.320312 424.087677,372.693481 
	C424.415375,380.636292 424.180664,388.602264 424.180664,396.781372 
	C420.026245,396.781372 416.258301,396.781372 411.816010,396.781372 
	C411.816010,389.216431 411.949707,381.628754 411.773712,374.048309 
	C411.633148,367.993469 408.346100,365.618713 403.572418,368.174225 
	C402.270477,368.871124 401.173859,371.174866 401.122742,372.777527 
	C400.873322,380.598907 401.009827,388.432617 401.009827,396.635681 
	C397.029480,396.635681 393.130646,396.635681 388.850128,396.635681 
	C388.850128,384.092712 388.850128,371.374176 388.850128,357.963379 
	C393.178131,359.111908 398.313965,355.425110 402.073608,360.815613 
	C411.657043,354.956696 416.319794,355.350403 422.409119,362.106781 
	C426.922791,360.321045 431.010590,357.820801 435.368652,357.191040 
	C441.569489,356.294983 446.475464,360.178101 446.822845,366.357300 
	C447.389740,376.440308 446.975983,386.578400 446.975983,396.851746 
	C443.211853,396.851746 439.416687,396.851746 434.990326,396.851746 
	C434.990326,391.734650 434.990326,386.639038 434.990356,381.054016 
z"/>
<path fill="#058D05" opacity="1.000000" stroke="none" 
	d="
M343.169434,369.376282 
	C343.170410,378.320343 343.167847,386.806030 343.158875,395.291718 
	C343.158508,395.622803 343.096710,395.953857 342.978027,397.138123 
	C338.858826,395.662964 333.860992,399.740509 330.632538,394.967682 
	C326.619873,395.973297 322.608368,397.559906 318.501434,397.866058 
	C312.908112,398.282990 308.272614,394.390076 307.080872,389.380554 
	C305.498169,382.727448 307.529114,376.800690 313.266571,374.680145 
	C318.786560,372.639984 324.770325,371.854614 330.542786,370.519623 
	C329.071533,364.996246 326.631012,364.665710 310.275574,368.161499 
	C310.275574,365.066772 310.275574,362.027344 310.275574,358.774139 
	C317.997772,356.631378 325.676270,356.052582 333.447968,357.882751 
	C339.263367,359.252197 342.747437,362.755280 343.169434,369.376282 
M319.340210,386.221283 
	C321.373932,390.570587 324.984802,389.674316 328.193604,388.441864 
	C333.024170,386.586548 330.443481,382.449951 330.828064,379.155975 
	C322.322449,379.202545 320.337036,380.305542 319.340210,386.221283 
z"/>
<path fill="#098F09" opacity="1.000000" stroke="none" 
	d="
M369.230835,366.018829 
	C363.928711,366.588867 361.570557,369.718506 360.814941,374.233887 
	C360.023956,378.960480 359.873444,383.884583 364.182159,387.003601 
	C370.471954,391.556763 376.122009,388.286835 381.372742,384.248291 
	C384.635376,392.701385 383.024414,395.935608 375.034760,397.646149 
	C362.557465,400.317413 351.334442,394.643341 348.443939,384.202484 
	C345.974640,375.282990 348.623627,365.883698 354.965454,361.062561 
	C361.000549,356.474670 374.465485,355.447083 380.697418,359.228363 
	C381.526703,359.731567 382.372040,360.908020 382.443054,361.831635 
	C382.666840,364.742218 382.525513,367.680908 382.525513,370.301727 
	C377.843628,368.744629 373.741516,367.380371 369.230835,366.018829 
z"/>
<path fill="#F6FBF6" opacity="1.000000" stroke="none" 
	d="
M319.260071,385.833099 
	C320.337036,380.305542 322.322449,379.202545 330.828064,379.155975 
	C330.443481,382.449951 333.024170,386.586548 328.193604,388.441864 
	C324.984802,389.674316 321.373932,390.570587 319.260071,385.833099 
z"/>
</svg>